REM DIRINDEX 1\2,1\4,1\3\5,1\3\6,1\3\7
REM DIRNAME cjc082,folder01,folder02,folder03,folder04,folder05,folder06
TITLE ""
FILE "CD1Track35.mp3" MP3
  TRACK 01 AUDIO
    TITLE "0:"
    INDEX 01 00:00:00
  TRACK 02 AUDIO
    TITLE "4:cjc082_0610"
    INDEX 01 00:00:29
  TRACK 03 AUDIO
    TITLE "0:"
    INDEX 01 00:04:40
  TRACK 04 AUDIO
    TITLE "5:cjc082_0611"
    INDEX 01 00:05:14
  TRACK 05 AUDIO
    TITLE "0:"
    INDEX 01 00:07:03
  TRACK 06 AUDIO
    TITLE "6:cjc082_0612"
    INDEX 01 00:07:54
  TRACK 07 AUDIO
    TITLE "0:"
    INDEX 01 00:10:00
  TRACK 08 AUDIO
    TITLE "5:cjc082_0613"
    INDEX 01 00:10:45
  TRACK 09 AUDIO
    TITLE "0:"
    INDEX 01 00:12:30
  TRACK 10 AUDIO
    TITLE "6:cjc082_0614"
    INDEX 01 00:13:02
  TRACK 11 AUDIO
    TITLE "0:"
    INDEX 01 00:15:42
  TRACK 12 AUDIO
    TITLE "5:cjc082_0615"
    INDEX 01 00:16:14
  TRACK 13 AUDIO
    TITLE "0:"
    INDEX 01 00:17:33
  TRACK 14 AUDIO
    TITLE "6:cjc082_0616"
    INDEX 01 00:18:07
  TRACK 15 AUDIO
    TITLE "0:"
    INDEX 01 00:19:26
  TRACK 16 AUDIO
    TITLE "5:cjc082_0617"
    INDEX 01 00:19:71
  TRACK 17 AUDIO
    TITLE "0:"
    INDEX 01 00:21:21
  TRACK 18 AUDIO
    TITLE "6:cjc082_0618"
    INDEX 01 00:21:72
  TRACK 19 AUDIO
    TITLE "0:"
    INDEX 01 00:24:27
  TRACK 20 AUDIO
    TITLE "5:cjc082_0619"
    INDEX 01 00:24:72
  TRACK 21 AUDIO
    TITLE "0:"
    INDEX 01 00:26:15
  TRACK 22 AUDIO
    TITLE "6:cjc082_0620"
    INDEX 01 00:26:69
  TRACK 23 AUDIO
    TITLE "0:"
    INDEX 01 00:30:16
  TRACK 24 AUDIO
    TITLE "5:cjc082_0621"
    INDEX 01 00:30:59
  TRACK 25 AUDIO
    TITLE "0:"
    INDEX 01 00:32:09
  TRACK 26 AUDIO
    TITLE "6:cjc082_0622"
    INDEX 01 00:32:60
  TRACK 27 AUDIO
    TITLE "0:"
    INDEX 01 00:33:60
  TRACK 28 AUDIO
    TITLE "5:cjc082_0623"
    INDEX 01 00:34:32
  TRACK 29 AUDIO
    TITLE "0:"
    INDEX 01 00:35:63
  TRACK 30 AUDIO
    TITLE "6:cjc082_0624"
    INDEX 01 00:36:36
  TRACK 31 AUDIO
    TITLE "0:"
    INDEX 01 00:38:24
  TRACK 32 AUDIO
    TITLE "5:cjc082_0625"
    INDEX 01 00:38:71
  TRACK 33 AUDIO
    TITLE "0:"
    INDEX 01 00:40:42
  TRACK 34 AUDIO
    TITLE "6:cjc082_0626"
    INDEX 01 00:41:18
  TRACK 35 AUDIO
    TITLE "0:"
    INDEX 01 00:43:33
  TRACK 36 AUDIO
    TITLE "5:cjc082_0627"
    INDEX 01 00:44:11
  TRACK 37 AUDIO
    TITLE "0:"
    INDEX 01 00:45:22
  TRACK 38 AUDIO
    TITLE "6:cjc082_0628"
    INDEX 01 00:46:00
  TRACK 39 AUDIO
    TITLE "0:"
    INDEX 01 00:47:11
  TRACK 40 AUDIO
    TITLE "5:cjc082_0629"
    INDEX 01 00:47:66
  TRACK 41 AUDIO
    TITLE "0:"
    INDEX 01 00:48:73
  TRACK 42 AUDIO
    TITLE "6:cjc082_0630"
    INDEX 01 00:49:45
  TRACK 43 AUDIO
    TITLE "0:"
    INDEX 01 00:52:43
  TRACK 44 AUDIO
    TITLE "5:cjc082_0631"
    INDEX 01 00:53:19
  TRACK 45 AUDIO
    TITLE "0:"
    INDEX 01 00:54:30
  TRACK 46 AUDIO
    TITLE "6:cjc082_0632"
    INDEX 01 00:55:04
  TRACK 47 AUDIO
    TITLE "0:"
    INDEX 01 00:56:51
  TRACK 48 AUDIO
    TITLE "5:cjc082_0633"
    INDEX 01 00:57:25
  TRACK 49 AUDIO
    TITLE "0:"
    INDEX 01 00:58:36
  TRACK 50 AUDIO
    TITLE "6:cjc082_0634"
    INDEX 01 00:59:14
  TRACK 51 AUDIO
    TITLE "0:"
    INDEX 01 01:01:03
  TRACK 52 AUDIO
    TITLE "5:cjc082_0635"
    INDEX 01 01:01:44
  TRACK 53 AUDIO
    TITLE "0:"
    INDEX 01 01:02:46
  TRACK 54 AUDIO
    TITLE "6:cjc082_0636"
    INDEX 01 01:03:22
  TRACK 55 AUDIO
    TITLE "0:"
    INDEX 01 01:04:62
  TRACK 56 AUDIO
    TITLE "5:cjc082_0637"
    INDEX 01 01:05:34
  TRACK 57 AUDIO
    TITLE "0:"
    INDEX 01 01:06:55
  TRACK 58 AUDIO
    TITLE "6:cjc082_0638"
    INDEX 01 01:07:29
  TRACK 59 AUDIO
    TITLE "0:"
    INDEX 01 01:09:20
  TRACK 60 AUDIO
    TITLE "5:cjc082_0639"
    INDEX 01 01:09:67
  TRACK 61 AUDIO
    TITLE "0:"
    INDEX 01 01:11:29
  TRACK 62 AUDIO
    TITLE "6:cjc082_0640"
    INDEX 01 01:12:01
  TRACK 63 AUDIO
    TITLE "0:"
    INDEX 01 01:13:04
  TRACK 64 AUDIO
    TITLE "5:cjc082_0641"
    INDEX 01 01:13:55
  TRACK 65 AUDIO
    TITLE "0:"
    INDEX 01 01:14:57
  TRACK 66 AUDIO
    TITLE "6:cjc082_0642"
    INDEX 01 01:15:37
  TRACK 67 AUDIO
    TITLE "0:"
    INDEX 01 01:17:73
  TRACK 68 AUDIO
    TITLE "5:cjc082_0643"
    INDEX 01 01:18:45
  TRACK 69 AUDIO
    TITLE "0:"
    INDEX 01 01:20:32
  TRACK 70 AUDIO
    TITLE "6:cjc082_0644"
    INDEX 01 01:21:06
  TRACK 71 AUDIO
    TITLE "0:"
    INDEX 01 01:25:72
  TRACK 72 AUDIO
    TITLE "5:cjc082_0645"
    INDEX 01 01:26:44
  TRACK 73 AUDIO
    TITLE "0:"
    INDEX 01 01:27:65
  TRACK 74 AUDIO
    TITLE "6:cjc082_0646"
    INDEX 01 01:28:45
  TRACK 75 AUDIO
    TITLE "0:"
    INDEX 01 01:31:00
  TRACK 76 AUDIO
    TITLE "5:cjc082_0647"
    INDEX 01 01:31:51
  TRACK 77 AUDIO
    TITLE "0:"
    INDEX 01 01:32:60
  TRACK 78 AUDIO
    TITLE "6:cjc082_0648"
    INDEX 01 01:33:38
  TRACK 79 AUDIO
    TITLE "0:"
    INDEX 01 01:35:29
  TRACK 80 AUDIO
    TITLE "7:cjc082_0649"
    INDEX 01 01:36:70
  TRACK 81 AUDIO
    TITLE "0:"
    INDEX 01 01:47:70
